solid STL generated by MeshLab
  facet normal  0.000000e+00 -1.000000e+00  0.000000e+00
    outer loop
      vertex   0.000000e+00  0.000000e+00  1.000000e+01
      vertex   0.000000e+00  0.000000e+00  0.000000e+00
      vertex   9.992064e+01  0.000000e+00  1.000000e+01
    endloop
  endfacet
  facet normal  0.000000e+00 -1.000000e+00 -0.000000e+00
    outer loop
      vertex   9.992064e+01  0.000000e+00  1.000000e+01
      vertex   0.000000e+00  0.000000e+00  0.000000e+00
      vertex   9.992064e+01  0.000000e+00  0.000000e+00
    endloop
  endfacet
  facet normal -1.000000e+00 -0.000000e+00 -0.000000e+00
    outer loop
      vertex   0.000000e+00  1.105000e+01  1.000000e+01
      vertex   0.000000e+00  1.105000e+01  0.000000e+00
      vertex   0.000000e+00  0.000000e+00  1.000000e+01
    endloop
  endfacet
  facet normal -1.000000e+00  0.000000e+00  0.000000e+00
    outer loop
      vertex   0.000000e+00  0.000000e+00  1.000000e+01
      vertex   0.000000e+00  1.105000e+01  0.000000e+00
      vertex   0.000000e+00  0.000000e+00  0.000000e+00
    endloop
  endfacet
  facet normal  0.000000e+00  1.000000e+00  0.000000e+00
    outer loop
      vertex   1.054000e+01  1.105000e+01  1.000000e+01
      vertex   1.054000e+01  1.105000e+01  0.000000e+00
      vertex   0.000000e+00  1.105000e+01  1.000000e+01
    endloop
  endfacet
  facet normal  0.000000e+00  1.000000e+00  0.000000e+00
    outer loop
      vertex   0.000000e+00  1.105000e+01  1.000000e+01
      vertex   1.054000e+01  1.105000e+01  0.000000e+00
      vertex   0.000000e+00  1.105000e+01  0.000000e+00
    endloop
  endfacet
  facet normal  7.071068e-01  7.071068e-01  0.000000e+00
    outer loop
      vertex   2.000000e+01  1.590000e+00  1.000000e+01
      vertex   2.000000e+01  1.590000e+00  0.000000e+00
      vertex   1.054000e+01  1.105000e+01  1.000000e+01
    endloop
  endfacet
  facet normal  7.071068e-01  7.071068e-01  0.000000e+00
    outer loop
      vertex   1.054000e+01  1.105000e+01  1.000000e+01
      vertex   2.000000e+01  1.590000e+00  0.000000e+00
      vertex   1.054000e+01  1.105000e+01  0.000000e+00
    endloop
  endfacet
  facet normal -3.420201e-01  9.396926e-01  0.000000e+00
    outer loop
      vertex   5.931639e+01  1.590000e+01  1.000000e+01
      vertex   5.931639e+01  1.590000e+01  0.000000e+00
      vertex   2.000000e+01  1.590000e+00  1.000000e+01
    endloop
  endfacet
  facet normal -3.420201e-01  9.396926e-01  0.000000e+00
    outer loop
      vertex   2.000000e+01  1.590000e+00  1.000000e+01
      vertex   5.931639e+01  1.590000e+01  0.000000e+00
      vertex   2.000000e+01  1.590000e+00  0.000000e+00
    endloop
  endfacet
  facet normal -1.000000e+00 -0.000000e+00 -0.000000e+00
    outer loop
      vertex   5.931639e+01  5.000000e+01  1.000000e+01
      vertex   5.931639e+01  5.000000e+01  0.000000e+00
      vertex   5.931639e+01  1.590000e+01  1.000000e+01
    endloop
  endfacet
  facet normal -1.000000e+00  0.000000e+00  0.000000e+00
    outer loop
      vertex   5.931639e+01  1.590000e+01  1.000000e+01
      vertex   5.931639e+01  5.000000e+01  0.000000e+00
      vertex   5.931639e+01  1.590000e+01  0.000000e+00
    endloop
  endfacet
  facet normal  0.000000e+00  1.000000e+00  0.000000e+00
    outer loop
      vertex   9.992064e+01  5.000000e+01  1.000000e+01
      vertex   9.992064e+01  5.000000e+01  0.000000e+00
      vertex   5.931639e+01  5.000000e+01  1.000000e+01
    endloop
  endfacet
  facet normal  0.000000e+00  1.000000e+00  0.000000e+00
    outer loop
      vertex   5.931639e+01  5.000000e+01  1.000000e+01
      vertex   9.992064e+01  5.000000e+01  0.000000e+00
      vertex   5.931639e+01  5.000000e+01  0.000000e+00
    endloop
  endfacet
  facet normal  1.000000e+00 -0.000000e+00  0.000000e+00
    outer loop
      vertex   9.992064e+01  0.000000e+00  1.000000e+01
      vertex   9.992064e+01  0.000000e+00  0.000000e+00
      vertex   9.992064e+01  5.000000e+01  1.000000e+01
    endloop
  endfacet
  facet normal  1.000000e+00  0.000000e+00  0.000000e+00
    outer loop
      vertex   9.992064e+01  5.000000e+01  1.000000e+01
      vertex   9.992064e+01  0.000000e+00  0.000000e+00
      vertex   9.992064e+01  5.000000e+01  0.000000e+00
    endloop
  endfacet
  facet normal  0.000000e+00  0.000000e+00 -1.000000e+00
    outer loop
      vertex   5.931639e+01  5.000000e+01  0.000000e+00
      vertex   9.992064e+01  5.000000e+01  0.000000e+00
      vertex   5.931639e+01  1.590000e+01  0.000000e+00
    endloop
  endfacet
  facet normal  0.000000e+00  0.000000e+00 -1.000000e+00
    outer loop
      vertex   5.931639e+01  1.590000e+01  0.000000e+00
      vertex   9.992064e+01  5.000000e+01  0.000000e+00
      vertex   9.992064e+01  0.000000e+00  0.000000e+00
    endloop
  endfacet
  facet normal  0.000000e+00 -0.000000e+00 -1.000000e+00
    outer loop
      vertex   5.931639e+01  1.590000e+01  0.000000e+00
      vertex   9.992064e+01  0.000000e+00  0.000000e+00
      vertex   2.000000e+01  1.590000e+00  0.000000e+00
    endloop
  endfacet
  facet normal  0.000000e+00 -0.000000e+00 -1.000000e+00
    outer loop
      vertex   2.000000e+01  1.590000e+00  0.000000e+00
      vertex   9.992064e+01  0.000000e+00  0.000000e+00
      vertex   0.000000e+00  0.000000e+00  0.000000e+00
    endloop
  endfacet
  facet normal -0.000000e+00  0.000000e+00 -1.000000e+00
    outer loop
      vertex   2.000000e+01  1.590000e+00  0.000000e+00
      vertex   0.000000e+00  0.000000e+00  0.000000e+00
      vertex   1.054000e+01  1.105000e+01  0.000000e+00
    endloop
  endfacet
  facet normal -0.000000e+00  0.000000e+00 -1.000000e+00
    outer loop
      vertex   1.054000e+01  1.105000e+01  0.000000e+00
      vertex   0.000000e+00  0.000000e+00  0.000000e+00
      vertex   0.000000e+00  1.105000e+01  0.000000e+00
    endloop
  endfacet
  facet normal  0.000000e+00  0.000000e+00  1.000000e+00
    outer loop
      vertex   2.000000e+01  1.590000e+00  1.000000e+01
      vertex   1.054000e+01  1.105000e+01  1.000000e+01
      vertex   0.000000e+00  1.105000e+01  1.000000e+01
    endloop
  endfacet
  facet normal  0.000000e+00 -0.000000e+00  1.000000e+00
    outer loop
      vertex   9.992064e+01  0.000000e+00  1.000000e+01
      vertex   9.992064e+01  5.000000e+01  1.000000e+01
      vertex   5.931639e+01  5.000000e+01  1.000000e+01
    endloop
  endfacet
  facet normal  0.000000e+00  0.000000e+00  1.000000e+00
    outer loop
      vertex   5.931639e+01  5.000000e+01  1.000000e+01
      vertex   5.931639e+01  1.590000e+01  1.000000e+01
      vertex   9.992064e+01  0.000000e+00  1.000000e+01
    endloop
  endfacet
  facet normal  0.000000e+00  0.000000e+00  1.000000e+00
    outer loop
      vertex   9.992064e+01  0.000000e+00  1.000000e+01
      vertex   5.931639e+01  1.590000e+01  1.000000e+01
      vertex   2.000000e+01  1.590000e+00  1.000000e+01
    endloop
  endfacet
  facet normal  0.000000e+00  0.000000e+00  1.000000e+00
    outer loop
      vertex   9.992064e+01  0.000000e+00  1.000000e+01
      vertex   2.000000e+01  1.590000e+00  1.000000e+01
      vertex   0.000000e+00  0.000000e+00  1.000000e+01
    endloop
  endfacet
  facet normal  0.000000e+00  0.000000e+00  1.000000e+00
    outer loop
      vertex   0.000000e+00  0.000000e+00  1.000000e+01
      vertex   2.000000e+01  1.590000e+00  1.000000e+01
      vertex   0.000000e+00  1.105000e+01  1.000000e+01
    endloop
  endfacet
endsolid vcg
